<?xml version="1.0" encoding="UTF-8" standalone="no"?><!DOCTYPE svg PUBLIC "-//W3C//DTD SVG 1.1//EN" >
<svg width="100%" height="100%" viewBox="0 0 360 360" version="1.1" xmlns="http://www.w3.org/2000/svg"
     xmlns:xlink="http://www.w3.org/1999/xlink" xml:space="preserve" xmlns:serif="http://www.serif.com/"
     style="fill-rule:evenodd;clip-rule:evenodd;stroke-linejoin:round;stroke-miterlimit:2;"><rect id="Artboard7" x="0" y="0" width="360" height="360" style="fill:none;"/>
    <path d="M35.912,186.687l24.663,-36.484l-44.255,-3.338l2.128,-25.615l43.929,3.119l-19.266,-39.603l22.976,-11.521l18.931,40.8l25.325,-37.461l21.132,14.286l-25.324,37.461l44.916,2.362l-2.128,25.614l-43.929,-3.118l19.266,39.602l-22.976,11.521l-19.372,-40.148l-24.883,36.809l-21.133,-14.286Zm186.941,-75.661l-7.997,-29.847l-22.117,21.921l-12.598,-12.905l21.851,-21.849l-29.849,-7.997l4.458,-17.475l30.329,8.725l-8.212,-30.647l17.289,-4.632l8.211,30.646l21.903,-22.72l12.598,12.905l-21.851,21.849l29.849,7.997l-4.458,17.475l-30.186,-8.192l8.069,30.114l-17.289,4.632Zm-12.207,223.591l15.647,-58.393l-58.918,15.506l-8.72,-34.188l58.395,-15.646l-42.749,-42.748l24.647,-25.247l42.851,44.451l16.066,-59.957l33.823,9.063l-16.065,59.957l59.336,-17.07l8.721,34.188l-58.396,15.646l42.75,42.748l-24.647,25.247l-43.131,-43.408l-15.786,58.914l-33.824,-9.063Z"
          style="fill:#571eca;"/></svg>